<?xml version="1.0"?>
<svg width="375" height="650" xmlns="http://www.w3.org/2000/svg" xmlns:svg="http://www.w3.org/2000/svg" xmlns:xlink="http://www.w3.org/1999/xlink">
 <defs>
  <pattern height="1" id="pattern0" patternContentUnits="objectBoundingBox" width="1">
   <use id="svg_1" transform="scale(0.00178571 0.00398406)" xlink:href="#image0_2907_63197"/>
  </pattern>
  <pattern height="1" id="pattern1" patternContentUnits="objectBoundingBox" width="1">
   <use id="svg_2" transform="scale(0.00138889 0.00190476)" xlink:href="#image1_2907_63197"/>
  </pattern>
  <pattern height="1" id="pattern2" patternContentUnits="objectBoundingBox" width="1">
   <use id="svg_3" transform="scale(0.000488281 0.000735294)" xlink:href="#image2_2907_63197"/>
  </pattern>
 </defs>
 <g class="layer">
  <title>Layer 1</title>
  <rect fill="#4F00A8" height="461" id="svg_5" transform="matrix(1, 0, 0, -1, 0, 541)" width="375" x="0" y="81"/>
  <rect fill="#914AFF" height="340" id="svg_6" transform="matrix(1, 0, 0, -1, 0, 731)" width="375" x="0" y="81"/>
  <path clip-rule="evenodd" d="m-23,324.25c0.32,-2.52 0.55,-4.87 0.93,-7.19c1,-5.96 2.7,-11.7 5.68,-17.01c2.87,-5.1 6.65,-9.28 12.08,-11.78c0.46,-0.21 0.93,-0.39 1.4,-0.57c0.4,-0.17 0.81,-0.33 1.46,-0.59c-10.28,-11.71 -13.91,-25.08 -10.41,-40.14c2,-8.6 6.47,-15.88 13.06,-21.78c14.06,-12.61 34.53,-14.88 51.08,-5.58c9.17,5.15 15.67,12.72 19.38,22.54c3.67,9.71 3.67,19.53 0.38,29.77c1.55,-0.9 2.74,-1.64 3.97,-2.31c7.31,-3.98 15.01,-5.54 23.35,-4.1c8.17,1.43 15.34,4.9 21.81,9.87c11.48,8.82 19.41,20.06 23.07,34.1c1.17,4.51 1.63,9.1 1.37,13.76c-0.02,0.3 -0.08,0.6 -0.14,1.01l-168.47,0z" fill="#FFBD10" fill-rule="evenodd" id="svg_7"/>
  <rect fill="url(#pattern0)" height="19.71" id="svg_9" transform="rotate(-15, 80.0723, 355.211)" width="44.02" x="80.07" y="355.21"/>
  <rect fill="url(#pattern1)" height="99.86" id="svg_10" width="136.87" x="71.01" y="273"/>
  <path clip-rule="evenodd" d="m229.43,282.39c-1.91,-2.1 -2.88,-4.83 -2.74,-7.67c0.14,-2.84 1.38,-5.46 3.48,-7.36l39.15,-35.2c0.55,-0.5 0.88,-1.19 0.92,-1.94c0.03,-0.76 -0.22,-1.48 -0.73,-2.03l-9.86,-10.87c-3.94,-4.35 -3.61,-11.09 0.74,-15.03c2.11,-1.91 4.84,-2.88 7.68,-2.74c2.85,0.14 5.46,1.38 7.37,3.49l46.97,51.77c1.94,2.14 2.93,4.91 2.79,7.79c-0.02,0.33 -0.05,0.66 -0.09,0.99c-0.35,2.49 -1.58,4.79 -3.45,6.49l-5.68,5.13c-0.13,0.12 -0.28,0.23 -0.44,0.33l-19.29,17.42c-4.33,3.92 -11.06,3.71 -15.01,-0.45c-1.16,-1.23 -2.01,-2.7 -2.49,-4.3c-3.66,0.72 -7.42,-0.51 -9.95,-3.3c-1.11,-1.22 -1.92,-2.67 -2.36,-4.23c-3.7,0.78 -7.62,-0.45 -10.16,-3.25c-0.81,-0.89 -1.46,-1.93 -1.93,-3.04l-9.87,8.74c-2.1,1.91 -4.83,2.88 -7.68,2.74c-2.84,-0.14 -5.46,-1.38 -7.37,-3.48" fill="#4F00A8" fill-rule="evenodd" id="svg_11"/>
  <path clip-rule="evenodd" d="m276.58,193.11c-0.02,-0.82 0.31,-1.66 0.89,-2.25l9.98,-9.39c1.03,-1.05 2.63,-1 3.62,-0.42c0.26,0.16 0.42,0.39 0.53,0.56c0.02,0.04 0.05,0.09 0.07,0.12l0.11,0.08c0.58,0.58 0.87,1.44 0.79,2.31c-0.01,0.03 -0.01,0.07 -0.02,0.11c-0.1,0.72 -0.47,1.35 -1.04,1.75l-9.91,9.32c-0.58,0.58 -1.44,0.88 -2.3,0.79c-0.76,-0.08 -1.43,-0.45 -1.84,-1.03c-0.54,-0.52 -0.85,-1.21 -0.88,-1.95" fill="#4F00A8" fill-rule="evenodd" id="svg_12"/>
  <path clip-rule="evenodd" d="m250.82,197.63l-11.82,-6.87l-0.05,-0.04c-0.6,-0.42 -1.87,-1.69 -0.71,-4.25l0.07,-0.12c0.69,-0.96 1.92,-1.91 3.9,-1.02l11.87,6.91l0.04,0.01c1.1,0.73 1.61,1.82 1.44,2.99c-0.06,0.45 -0.22,0.9 -0.47,1.34l-0.02,0.04c-1,1.56 -2.59,1.94 -4.25,1.01" fill="#4F00A8" fill-rule="evenodd" id="svg_13"/>
  <path clip-rule="evenodd" d="m268.43,188.22c-0.01,1.33 -0.66,2.35 -1.73,2.84c-0.4,0.18 -0.86,0.29 -1.37,0.31l-0.04,0c-1.84,-0.02 -3.01,-1.17 -3.13,-3.09l-0.68,-18.96l0,-0.06c0.03,-0.74 0.41,-2.51 3.17,-2.88l0.14,0c1.17,0.07 2.62,0.62 2.95,2.78l0.69,19.03l0,0.03z" fill="#4F00A8" fill-rule="evenodd" id="svg_14"/>
  <path clip-rule="evenodd" d="m229.7,281.33c-1.91,-2.11 -2.88,-4.83 -2.74,-7.67c0.13,-2.85 1.37,-5.46 3.48,-7.36l39.14,-35.2c0.56,-0.5 0.89,-1.19 0.92,-1.95c0.04,-0.75 -0.22,-1.47 -0.72,-2.02l-9.86,-10.87c-3.95,-4.35 -3.61,-11.09 0.74,-15.03c2.11,-1.91 4.84,-2.88 7.68,-2.74c2.84,0.14 5.46,1.38 7.37,3.48l46.97,51.78c1.94,2.14 2.93,4.9 2.79,7.79c-0.02,0.33 -0.05,0.66 -0.1,0.99c-0.35,2.48 -1.57,4.79 -3.45,6.48l-5.67,5.14c-0.14,0.12 -0.29,0.23 -0.44,0.33l-19.3,17.42c-4.32,3.91 -11.06,3.71 -15.01,-0.46c-1.16,-1.22 -2.01,-2.69 -2.48,-4.29c-3.67,0.72 -7.42,-0.51 -9.96,-3.3c-1.11,-1.22 -1.91,-2.67 -2.36,-4.24c-3.69,0.79 -7.61,-0.44 -10.15,-3.24c-0.81,-0.89 -1.47,-1.93 -1.93,-3.04l-9.87,8.74c-2.11,1.91 -4.83,2.88 -7.68,2.74c-2.85,-0.14 -5.46,-1.38 -7.37,-3.48" fill="#914AFF" fill-rule="evenodd" id="svg_15"/>
  <path clip-rule="evenodd" d="m276.85,192.05c-0.03,-0.82 0.31,-1.66 0.89,-2.25l9.97,-9.39c1.04,-1.05 2.64,-1 3.62,-0.42c0.27,0.16 0.42,0.39 0.53,0.56c0.02,0.04 0.06,0.09 0.08,0.12l0.1,0.08c0.59,0.58 0.88,1.44 0.79,2.31c0,0.03 -0.01,0.07 -0.01,0.11c-0.1,0.72 -0.48,1.35 -1.04,1.74l-9.92,9.33c-0.57,0.58 -1.43,0.88 -2.3,0.79c-0.76,-0.08 -1.42,-0.46 -1.83,-1.04c-0.55,-0.51 -0.86,-1.2 -0.88,-1.94" fill="#914AFF" fill-rule="evenodd" id="svg_16"/>
  <path clip-rule="evenodd" d="m251.09,196.57l-11.82,-6.88l-0.06,-0.03c-0.6,-0.43 -1.87,-1.69 -0.71,-4.25l0.08,-0.13c0.68,-0.95 1.92,-1.9 3.9,-1.01l11.87,6.9l0.03,0.02c1.11,0.72 1.61,1.82 1.45,2.99c-0.07,0.44 -0.22,0.89 -0.48,1.34l-0.02,0.04c-0.99,1.56 -2.58,1.94 -4.24,1.01" fill="#914AFF" fill-rule="evenodd" id="svg_17"/>
  <path clip-rule="evenodd" d="m268.69,187.16c-0.01,1.33 -0.65,2.35 -1.72,2.83c-0.4,0.19 -0.86,0.29 -1.38,0.32l-0.03,0c-1.85,-0.02 -3.02,-1.18 -3.13,-3.09l-0.69,-18.96l0,-0.07c0.03,-0.74 0.41,-2.5 3.17,-2.87l0.15,-0.01c1.16,0.08 2.62,0.63 2.94,2.79l0.69,19.02l0,0.04z" fill="#914AFF" fill-rule="evenodd" id="svg_18"/>
  <path clip-rule="evenodd" d="m241.01,278.05l13.93,-12.45c0.03,-0.03 0.06,-0.05 0.09,-0.07l8.61,-7.78c1.16,-1.04 2.95,-0.95 3.99,0.21c0.56,0.62 0.82,1.46 0.7,2.29c-0.09,0.65 -0.41,1.25 -0.9,1.7l-7.95,7.17c-0.06,1.32 0.4,2.63 1.29,3.61c1.73,1.91 4.67,2.18 6.72,0.62l8.53,-7.7c1.16,-1.04 2.95,-0.95 3.99,0.21c0.56,0.62 0.81,1.45 0.7,2.28c-0.09,0.66 -0.42,1.26 -0.91,1.7l-7.83,7.08c0.01,1.21 0.46,2.37 1.29,3.29c1.69,1.87 4.51,2.18 6.56,0.75l8.43,-7.61c1.16,-1.04 2.95,-0.95 3.99,0.2c0.56,0.63 0.82,1.46 0.7,2.29c-0.09,0.65 -0.42,1.26 -0.91,1.7l-7.79,7.03c0.07,1.18 0.55,2.29 1.36,3.15c1.85,1.96 5.04,2.02 7.11,0.15l19.68,-17.81c0.13,-0.13 0.28,-0.24 0.44,-0.33l5.27,-4.78c1.02,-0.92 1.62,-2.19 1.69,-3.57c0.07,-1.38 -0.41,-2.71 -1.33,-3.73l-46.9,-51.8c-0.89,-0.99 -2.12,-1.58 -3.45,-1.64c-1.34,-0.07 -2.61,0.39 -3.61,1.29c-0.86,0.78 -1.42,1.85 -1.59,3c-0.2,1.48 0.25,2.96 1.24,4.06l9.85,10.88c1.51,1.67 2.29,3.84 2.17,6.1c-0.11,2.26 -1.09,4.34 -2.76,5.85l-39.11,35.25c-0.99,0.89 -1.58,2.12 -1.64,3.46c-0.07,1.33 0.39,2.61 1.29,3.6c1.85,2.05 5.02,2.2 7.06,0.35" fill="white" fill-rule="evenodd" id="svg_19"/>
  <rect fill="url(#pattern2)" height="214.52" id="svg_20" transform="matrix(-1, 0, 0, 1, 406.134, 277.078)" width="323.13" x="0" y="-81"/>
 </g>
</svg>