<svg width="1680" height="416" viewBox="0 0 1680 416" fill="none" xmlns="http://www.w3.org/2000/svg">
<rect width="1680" height="416" transform="matrix(1 0 0 -1 0 416)" fill="#4F00A8"/>
<rect width="1680" height="79" transform="matrix(1 0 0 -1 0 416)" fill="#914AFF"/>
<rect width="1680" height="6" transform="matrix(1 0 0 -1 0 416)" fill="#FFBD10"/>
<path fill-rule="evenodd" clip-rule="evenodd" d="M50 359.567C53.731 360.235 417.432 360.082 419.72 359.439C419.799 358.011 419.914 356.499 419.96 354.984C420.385 341.095 417.396 327.881 412.021 315.16C406.193 301.36 397.981 289.108 387.778 278.2C372.851 262.24 355.361 250.118 334.574 243.104C321.414 238.664 307.907 236.795 294.084 238.807C276.07 241.43 260.452 249.191 247.138 261.609C240.869 267.456 234.754 273.469 228.439 279.264C217.23 289.55 203.965 294.544 188.766 294.442C181.435 294.392 174.162 293.664 167.053 291.984C158.644 289.996 150.33 287.6 141.999 285.292C131.07 282.265 120.03 280.372 108.631 281.402C99.2114 282.252 90.4606 285.036 82.5535 290.297C73.0548 296.617 66.2976 305.31 61.2653 315.422C55.6558 326.696 52.4512 338.707 50.7941 351.154C50.427 353.907 50.2666 356.688 50 359.567Z" fill="#FFBD10"/>
<path fill-rule="evenodd" clip-rule="evenodd" d="M1724 376.428C1723.56 375.543 1723.2 374.674 1722.72 373.885C1718.55 367.105 1714.55 360.208 1710.13 353.594C1691.95 326.374 1671.24 301.271 1647.64 278.583C1627.42 259.146 1605.56 241.887 1581.51 227.469C1554.2 211.101 1525.18 199.056 1494.04 192.263C1474.28 187.952 1454.31 185.94 1434.1 186.001C1431.98 186.009 1430.83 186.629 1430 188.703C1420.59 212.042 1411.07 235.336 1401.6 258.648C1390.29 286.459 1379.01 314.277 1367.71 342.091C1363.47 352.532 1359.21 362.967 1354.98 373.414C1354.57 374.426 1354.33 375.506 1354 376.596C1357.85 377.229 1721.58 377.076 1724 376.428Z" fill="#DC2C62"/>
</svg>
