<svg width="375" height="99" viewBox="0 0 375 99" fill="none" xmlns="http://www.w3.org/2000/svg">
<rect width="375" height="98.9327" transform="matrix(1 0 0 -1 0 98.9336)" fill="#4F00A8"/>
<rect width="375" height="18.7877" transform="matrix(1 0 0 -1 0 98.9336)" fill="#914AFF"/>
<rect width="375" height="1.42691" transform="matrix(1 0 0 -1 0 98.9336)" fill="#FFBD10"/>
<path fill-rule="evenodd" clip-rule="evenodd" d="M12 89.911C12.8873 90.0697 99.3823 90.0333 99.9263 89.8806C99.9451 89.5408 99.9725 89.1814 99.9836 88.8211C100.085 85.518 99.3738 82.3755 98.0956 79.3502C96.7094 76.0681 94.7564 73.1543 92.3301 70.5604C88.7801 66.7648 84.6208 63.882 79.6771 62.2139C76.5474 61.1579 73.3351 60.7133 70.0478 61.1919C65.7638 61.8156 62.0494 63.6613 58.8832 66.6147C57.3923 68.0053 55.9379 69.4352 54.4362 70.8134C51.7706 73.2597 48.6157 74.4471 45.0012 74.4229C43.2577 74.411 41.528 74.238 39.8375 73.8385C37.8377 73.3656 35.8603 72.7957 33.8791 72.2469C31.28 71.5272 28.6544 71.0769 25.9436 71.3219C23.7034 71.5239 21.6223 72.186 19.7418 73.4373C17.4829 74.9402 15.8759 77.0076 14.6791 79.4124C13.3451 82.0937 12.5829 84.95 12.1889 87.9101C12.1015 88.5649 12.0634 89.2264 12 89.911Z" fill="#FFBD10"/>
<g clip-path="url(#clip0_2215_55424)">
<path fill-rule="evenodd" clip-rule="evenodd" d="M385.993 94.2874C385.888 94.0768 385.804 93.8702 385.689 93.6826C384.696 92.0702 383.745 90.43 382.694 88.8569C378.37 82.3837 373.445 76.4137 367.834 71.0181C363.025 66.3955 357.826 62.291 352.106 58.8622C345.612 54.9694 338.71 52.1049 331.304 50.4895C326.605 49.4643 321.855 48.9857 317.049 49.0003C316.546 49.0021 316.272 49.1495 316.073 49.6429C313.836 55.1934 311.572 60.7331 309.319 66.277C306.631 72.8911 303.947 79.5066 301.26 86.1213C300.252 88.6044 299.239 91.086 298.234 93.5706C298.136 93.8112 298.079 94.0682 298 94.3273C298.915 94.4779 385.417 94.4416 385.993 94.2874Z" fill="#DC2C62"/>
</g>
<defs>
<clipPath id="clip0_2215_55424">
<rect width="375" height="42" fill="white" transform="translate(0 48)"/>
</clipPath>
</defs>
</svg>
